<svg width="391" height="32" viewBox="0 0 391 32" fill="none" xmlns="http://www.w3.org/2000/svg">
<path d="M3.61054 12.3929L0 16.0076L3.61054 19.6224L7.22107 16.0076L3.61054 12.3929Z" fill="#F3BA2E"/>
<path d="M15.9873 7.2297L22.1777 13.4274L25.7884 9.81255L15.9873 0L6.18909 9.81255L9.7997 13.4274L15.9873 7.2297Z" fill="#F3BA2E"/>
<path d="M28.3669 12.3943L24.7564 16.009L28.3669 19.6238L31.9775 16.009L28.3669 12.3943Z" fill="#F3BA2E"/>
<path d="M15.9889 12.3938L12.3784 16.0085L15.9889 19.6233L19.5994 16.0085L15.9889 12.3938Z" fill="#F3BA2E"/>
<path d="M16.3366 24.7703L10.1489 18.5726L6.53833 22.1875L16.3366 32L26.1376 22.1875L22.527 18.5726L16.3366 24.7703Z" fill="#F3BA2E"/>
<path d="M194.041 10.6589C194.041 9.37645 195.199 8.36476 197.19 8.36476C198.957 8.36476 200.7 9.04944 202.436 10.3319L204.261 7.79249C202.302 6.23407 200.064 5.39099 197.246 5.39099C193.406 5.39099 190.645 7.62898 190.645 10.9604C190.645 14.5116 192.966 15.7123 197.081 16.6933C200.674 17.5109 201.444 18.2518 201.444 19.6416C201.444 21.1182 200.115 22.0737 198.017 22.0737C195.613 22.0737 193.762 21.1744 191.912 19.5905L189.87 21.992C192.191 24.0409 194.982 25.0526 197.934 25.0526C201.997 25.0526 204.84 22.9219 204.84 19.3197C204.84 16.1262 202.716 14.6802 198.627 13.694C194.925 12.8152 194.041 12.1612 194.041 10.6589Z" fill="#F3BA2E"/>
<path d="M224.442 11.0664V24.7754H227.838V5.66052H224.219L218.337 14.6993L212.454 5.66052H208.836V24.7754H212.18V11.1226L218.228 20.0797H218.337L224.442 11.0664Z" fill="#F3BA2E"/>
<path d="M242.819 5.5224H239.671L231.162 24.7752H234.641L236.631 20.1613H245.776L247.735 24.7752H251.327L242.819 5.5224ZM244.53 17.1824H237.872L241.185 9.53851L244.53 17.1824Z" fill="#F3BA2E"/>
<path d="M271.053 24.775L265.832 17.5399C268.541 16.8041 270.443 14.8932 270.443 11.7252C270.443 7.98502 267.709 5.66528 263.263 5.66528H254.646V24.7802H258.042V18.1122H262.296L267.047 24.775H271.053ZM266.99 11.9143C266.99 13.8815 265.444 15.1384 263.01 15.1384H258.037V8.7208H262.984C265.501 8.7208 266.99 9.80914 266.99 11.9143Z" fill="#F3BA2E"/>
<path d="M282.7 8.77225H288.836V5.66052H273.147V8.77225H279.278V24.7754H282.705V8.77225H282.7Z" fill="#F3BA2E"/>
<path d="M318.124 21.7145L315.942 19.5327C314.283 21.0605 312.768 22.016 310.39 22.016C306.689 22.016 304.011 18.9553 304.011 15.1896C304.011 11.4187 306.689 8.41943 310.39 8.41943C312.598 8.41943 314.257 9.37491 315.803 10.7954L317.984 8.31213C316.133 6.56466 313.978 5.33325 310.416 5.33325C304.559 5.33325 300.445 9.78368 300.445 15.2458C300.445 20.759 304.642 25.1021 310.277 25.1021C313.9 25.1021 316.108 23.789 318.124 21.7145Z" fill="#F3BA2E"/>
<path d="M334.319 16.7176V24.7703H337.715V5.66052H334.319V13.6059H325.091V5.66052H321.695V24.7754H325.091V16.7176H334.319Z" fill="#F3BA2E"/>
<path d="M352.685 5.52252H349.537L341.029 24.7753H344.508L346.498 20.1614H355.642L357.601 24.7753H361.194L352.685 5.52252ZM354.396 17.1825H347.738L351.052 9.53864L354.396 17.1825Z" fill="#F3BA2E"/>
<path d="M364.704 5.66052V24.7754H368.1V5.66052H364.704Z" fill="#F3BA2E"/>
<path d="M386.782 18.8738L376.423 5.66052H373.275V24.7754H376.619V11.1737L387.283 24.7703H390.127V5.66052H386.782V18.8738Z" fill="#F3BA2E"/>
<path d="M60.8812 19.5318V19.4774C60.8812 16.9119 59.5008 15.6292 57.2634 14.7819C58.6437 14.0164 59.8038 12.8153 59.8038 10.6581V10.6037C59.8038 7.5993 57.3735 5.65989 53.4218 5.65989H44.4444V24.775H53.6421C58.0103 24.775 60.8812 23.0261 60.8812 19.5318ZM55.5767 11.3693C55.5767 12.7881 54.3891 13.3903 52.5096 13.3903H48.5854V9.34818H52.785C54.5818 9.34818 55.5767 10.0593 55.5767 11.3148V11.3693ZM56.6541 19.0146C56.6541 20.4335 55.5216 21.0901 53.6421 21.0901H48.5854V16.8847H53.501C55.6834 16.8847 56.6506 17.6774 56.6506 18.9602V19.0146H56.6541ZM69.8035 24.775V5.65989H65.5489V24.775H69.8035ZM92.6704 24.775V5.65989H88.4709V17.4291L79.4109 5.65989H75.4867V24.775H79.6862V12.6248L89.0526 24.775H92.6704ZM116.236 24.775L107.951 5.52379H104.026L95.7375 24.775H100.075L101.844 20.4879H110.019L111.789 24.775H116.236ZM108.501 16.7724H103.362L105.93 10.5731L108.501 16.7724ZM136.514 24.775V5.65989H132.315V17.4291L123.255 5.65989H119.331V24.775H123.53V12.6248L132.897 24.775H136.514ZM158.476 21.689L155.77 18.984C154.252 20.3484 152.896 21.2228 150.686 21.2228C147.371 21.2228 145.079 18.4906 145.079 15.2141V15.1596C145.079 11.883 147.426 9.20868 150.686 9.20868C152.621 9.20868 154.139 10.0287 155.629 11.3658L158.335 8.2798C156.545 6.53433 154.363 5.33325 150.714 5.33325C144.772 5.33325 140.631 9.7837 140.631 15.2175V15.2719C140.631 20.7601 144.859 25.1017 150.549 25.1017C154.28 25.1017 156.49 23.7917 158.476 21.689ZM176.627 24.775V21.0357H166.132V17.0208H175.247V13.278H166.132V9.39922H176.489V5.65989H161.905V24.775H176.627Z" fill="#F3BA2E"/>
</svg>
