<svg width="30" height="30" viewBox="0 0 36 36" fill="none" xmlns="http://www.w3.org/2000/svg">
<path d="M18 0C8.064 0 0 8.064 0 18C0 27.936 8.064 36 18 36C27.936 36 36 27.936 36 18C36 8.064 27.936 0 18 0ZM13.896 7.308C13.932 7.308 13.968 7.308 13.968 7.308L14.22 7.632C9.612 8.928 7.524 10.944 7.524 10.944C7.524 10.944 8.064 10.656 9 10.224C11.736 9 13.896 8.676 14.796 8.604C14.94 8.568 15.084 8.568 15.228 8.568C16.776 8.352 18.54 8.316 20.376 8.496C22.788 8.784 25.38 9.504 28.044 10.944C28.044 10.944 26.028 9.036 21.708 7.704L22.032 7.308C22.032 7.308 25.524 7.236 29.196 9.972C29.196 9.972 32.868 16.632 32.868 24.804C32.868 24.804 30.708 28.512 25.092 28.692C25.092 28.692 24.156 27.612 23.4 26.64C26.748 25.704 28.008 23.616 28.008 23.616C26.964 24.3 25.956 24.768 25.092 25.092C23.796 25.632 22.572 25.992 21.384 26.208C18.936 26.64 16.704 26.532 14.796 26.172C13.356 25.884 12.096 25.488 11.052 25.092C10.476 24.84 9.828 24.552 9.18 24.228C9.108 24.156 9.036 24.12 8.964 24.084C8.928 24.048 8.892 24.048 8.856 24.012C8.388 23.76 8.136 23.58 8.136 23.58C8.136 23.58 9.36 25.596 12.6 26.568C11.844 27.54 10.908 28.692 10.908 28.692C5.256 28.512 3.132 24.804 3.132 24.804C3.132 16.632 6.804 9.972 6.804 9.972C10.224 7.416 13.5 7.308 13.896 7.308ZM13.248 16.812C11.772 16.812 10.656 18.072 10.656 19.62C10.656 21.168 11.808 22.464 13.248 22.464C14.688 22.464 15.84 21.168 15.84 19.62C15.876 18.072 14.688 16.812 13.248 16.812ZM22.536 16.812C21.096 16.812 19.944 18.072 19.944 19.62C19.944 21.168 21.096 22.464 22.536 22.464C23.976 22.464 25.128 21.168 25.128 19.62C25.128 18.072 23.976 16.812 22.536 16.812Z" fill="black"/>
</svg>
