<svg width="30" height="30" viewBox="0 0 36 36" fill="none" xmlns="http://www.w3.org/2000/svg">
<path d="M17.9977 0.37471C8.0595 0.37471 0 8.46571 0 18.4467C0 26.4297 5.157 33.2022 12.312 35.594C13.212 35.7605 13.5405 35.2025 13.5405 34.7232C13.5405 34.2935 13.5247 33.1572 13.5157 31.6497C8.5095 32.741 7.452 29.2265 7.452 29.2265C6.63525 27.1385 5.454 26.5827 5.454 26.5827C3.81825 25.4622 5.5755 25.4847 5.5755 25.4847C7.38225 25.613 8.33175 27.3477 8.33175 27.3477C9.93825 30.1085 12.546 29.312 13.572 28.8485C13.734 27.6807 14.1997 26.8842 14.715 26.432C10.719 25.9752 6.516 24.425 6.516 17.5017C6.516 15.5285 7.218 13.9152 8.37 12.6507C8.18325 12.194 7.56675 10.3557 8.5455 7.86946C8.5455 7.86946 10.0575 7.38346 13.4955 9.72121C14.931 9.32071 16.47 9.12046 18.0023 9.11371C19.53 9.12271 21.0712 9.32071 22.509 9.72346C25.9447 7.38571 27.4545 7.87171 27.4545 7.87171C28.4355 10.3602 27.819 12.1962 27.6345 12.653C28.7887 13.9175 29.484 15.5307 29.484 17.504C29.484 24.4452 25.2765 25.973 21.267 26.4207C21.9127 26.9787 22.4888 28.0812 22.4888 29.7665C22.4888 32.183 22.4662 34.1315 22.4662 34.7232C22.4662 35.207 22.7902 35.7695 23.7038 35.5917C30.8475 33.1977 36 26.4275 36 18.4467C36 8.46571 27.9405 0.37471 17.9977 0.37471Z" fill="black"/>
</svg>
