<svg width="30" height="30" viewBox="0 0 36 36" fill="none" xmlns="http://www.w3.org/2000/svg">
<path d="M18 0C8.06039 0 0 8.06039 0 18C0 27.9396 8.06039 36 18 36C27.9396 36 36 27.9396 36 18C36 8.06039 27.9396 0 18 0ZM26.2186 14.0345C26.2266 14.2116 26.2304 14.3896 26.2304 14.5684C26.2304 20.0278 22.0748 26.3232 14.4753 26.3235H14.4756H14.4753C12.1421 26.3235 9.97092 25.6396 8.14252 24.4677C8.46579 24.5058 8.79483 24.5248 9.12799 24.5248C11.0638 24.5248 12.8452 23.8645 14.2594 22.7563C12.4508 22.7227 10.9259 21.5283 10.3997 19.8866C10.6515 19.935 10.9105 19.9613 11.1761 19.9613C11.5532 19.9613 11.9185 19.9105 12.2657 19.8158C10.3752 19.4373 8.95111 17.7665 8.95111 15.7659C8.95111 15.7473 8.95111 15.7305 8.95166 15.7132C9.50839 16.0227 10.1451 16.209 10.8229 16.2298C9.71356 15.4896 8.98434 14.2243 8.98434 12.7908C8.98434 12.0339 9.18896 11.3247 9.54382 10.7141C11.5812 13.2141 14.6261 14.8582 18.0599 15.0309C17.989 14.7283 17.9525 14.413 17.9525 14.0889C17.9525 11.8081 19.8029 9.95773 22.0844 9.95773C23.2729 9.95773 24.3463 10.4601 25.1002 11.2632C26.0414 11.0775 26.9253 10.7336 27.7237 10.2604C27.4147 11.2247 26.7599 12.0339 25.9069 12.5456C26.7426 12.4456 27.5392 12.2239 28.2794 11.8949C27.7265 12.7235 27.0253 13.4514 26.2186 14.0345Z" fill="black"/>
</svg>
